<svg xmlns="http://www.w3.org/2000/svg" xmlns:xlink="http://www.w3.org/1999/xlink" viewBox="0 0 438.72 438.72" preserveAspectRatio="xMinYMin meet" >
<title>RSS Icon</title>
<path style="stroke:none; fill:rgb(0,0,0);" d="m 125.00046,369.60999 c 0,30.791 -24.991,55.751 -55.819232,55.751 -30.828236,0 -55.820234,-24.96 -55.820234,-55.751 0,-30.791 24.991998,-55.75 55.820234,-55.75 30.827232,0 55.819232,24.959 55.819232,55.75 z m -111.639466,-215.825 0,82.593 c 103.866826,1.066 188.149356,85.244 189.216686,188.983 l 82.69556,0 c -1.06832,-149.52 -122.20857,-270.509 -271.912246,-271.576 z m 0,-57.821993 c 87.803896,0.381 170.295216,34.694993 232.423266,96.746993 62.25222,62.173 96.62586,144.764 96.87417,232.651 l 82.70256,0 C 424.84335,198.21899 240.71998,14.154995 13.360994,13.360995 l 0,82.602002 z" />
</svg>