<?xml version="1.0"?>
<svg xmlns="http://www.w3.org/2000/svg" viewBox="0 0 64 64">
    <path d="M 3 6.0507812 C 1.35 6.0507812 0 7.4007812 0 9.0507812 L 0 43.269531 C 0 44.829531 1.1709375 46.109766 2.7109375 46.259766 L 10.710938 47.029297 C 15.780938 47.529297 20.89 47.840469 26 47.980469 L 26 50.640625 C 25.7 50.710625 25.399609 50.779375 25.099609 50.859375 L 18.179688 52.689453 C 16.899687 53.019453 16 54.189297 16 55.529297 C 16 56.439297 16.420625 57.289609 17.140625 57.849609 C 17.870625 58.409609 18.789687 58.589375 19.679688 58.359375 L 25.359375 56.859375 C 29.699375 55.709375 34.300625 55.709375 38.640625 56.859375 L 44.320312 58.359375 C 44.570312 58.419375 44.830078 58.460937 45.080078 58.460938 C 45.710078 58.460938 46.339375 58.249609 46.859375 57.849609 C 47.579375 57.289609 48 56.439531 48 55.519531 C 48 54.189531 47.100312 53.019453 45.820312 52.689453 L 38.900391 50.859375 C 38.600391 50.779375 38.3 50.710625 38 50.640625 L 38 47.980469 C 43.11 47.840469 48.219063 47.529297 53.289062 47.029297 L 61.289062 46.259766 C 62.829062 46.109766 64 44.829531 64 43.269531 L 64 9.0507812 C 64 7.4007812 62.65 6.0507813 61 6.0507812 L 3 6.0507812 z M 3 8.0507812 L 61 8.0507812 C 61.55 8.0507812 62 8.5007812 62 9.0507812 L 62 24.054688 C 61.448 24.054688 61 24.501687 61 25.054688 L 61 27.054688 C 61 27.607688 61.448 28.054688 62 28.054688 L 62 40.054688 L 2 40.054688 L 2 28.054688 C 2.552 28.054688 3 27.607688 3 27.054688 L 3 25.054688 C 3 24.501687 2.552 24.054687 2 24.054688 L 2 9.0507812 C 2 8.5007812 2.45 8.0507812 3 8.0507812 z M 5 10.054688 C 4.448 10.054688 4 10.501687 4 11.054688 C 4 11.607688 4.448 12.054688 5 12.054688 L 51 12.054688 C 51.552 12.054688 52 11.606687 52 11.054688 C 52 10.501687 51.552 10.054688 51 10.054688 L 5 10.054688 z M 55 10.054688 C 54.448 10.054688 54 10.501687 54 11.054688 C 54 11.607688 54.448 12.054688 55 12.054688 L 59 12.054688 C 59.552 12.054688 60 11.607688 60 11.054688 C 60 10.501687 59.552 10.054688 59 10.054688 L 55 10.054688 z M 7 24.054688 C 6.448 24.054688 6 24.501687 6 25.054688 L 6 27.054688 C 6 27.607688 6.448 28.054688 7 28.054688 C 7.552 28.054688 8 27.607688 8 27.054688 L 8 25.054688 C 8 24.501687 7.552 24.054687 7 24.054688 z M 12 24.054688 C 11.448 24.054688 11 24.501687 11 25.054688 L 11 27.054688 C 11 27.607688 11.448 28.054688 12 28.054688 C 12.552 28.054688 13 27.607688 13 27.054688 L 13 25.054688 C 13 24.501687 12.552 24.054687 12 24.054688 z M 17 24.054688 C 16.448 24.054688 16 24.501687 16 25.054688 L 16 27.054688 C 16 27.607688 16.448 28.054688 17 28.054688 C 17.552 28.054688 18 27.607688 18 27.054688 L 18 25.054688 C 18 24.501687 17.552 24.054687 17 24.054688 z M 22 24.054688 C 21.448 24.054688 21 24.501687 21 25.054688 L 21 27.054688 C 21 27.607688 21.448 28.054688 22 28.054688 C 22.552 28.054688 23 27.607688 23 27.054688 L 23 25.054688 C 23 24.501687 22.552 24.054687 22 24.054688 z M 27 24.054688 C 26.448 24.054688 26 24.501687 26 25.054688 L 26 27.054688 C 26 27.607688 26.448 28.054688 27 28.054688 C 27.552 28.054688 28 27.607688 28 27.054688 L 28 25.054688 C 28 24.501687 27.552 24.054687 27 24.054688 z M 32 24.054688 C 31.448 24.054688 31 24.501687 31 25.054688 L 31 27.054688 C 31 27.607688 31.448 28.054688 32 28.054688 C 32.552 28.054688 33 27.607688 33 27.054688 L 33 25.054688 C 33 24.501687 32.552 24.054687 32 24.054688 z M 37 24.054688 C 36.448 24.054688 36 24.501687 36 25.054688 L 36 27.054688 C 36 27.607688 36.448 28.054688 37 28.054688 C 37.552 28.054688 38 27.607688 38 27.054688 L 38 25.054688 C 38 24.501687 37.552 24.054687 37 24.054688 z M 42 24.054688 C 41.448 24.054688 41 24.501687 41 25.054688 L 41 27.054688 C 41 27.607688 41.448 28.054688 42 28.054688 C 42.552 28.054688 43 27.607688 43 27.054688 L 43 25.054688 C 43 24.501687 42.552 24.054687 42 24.054688 z M 47 24.054688 C 46.448 24.054688 46 24.501687 46 25.054688 L 46 27.054688 C 46 27.607688 46.448 28.054688 47 28.054688 C 47.552 28.054688 48 27.607688 48 27.054688 L 48 25.054688 C 48 24.501687 47.552 24.054687 47 24.054688 z M 52 24.054688 C 51.448 24.054688 51 24.501687 51 25.054688 L 51 27.054688 C 51 27.607688 51.448 28.054688 52 28.054688 C 52.552 28.054688 53 27.607688 53 27.054688 L 53 25.054688 C 53 24.501687 52.552 24.054687 52 24.054688 z M 57 24.054688 C 56.448 24.054688 56 24.501687 56 25.054688 L 56 27.054688 C 56 27.607688 56.448 28.054688 57 28.054688 C 57.552 28.054688 58 27.607688 58 27.054688 L 58 25.054688 C 58 24.501687 57.552 24.054687 57 24.054688 z M 2 42.054688 L 62 42.054688 L 62 43.269531 C 62 43.789531 61.609609 44.219531 61.099609 44.269531 L 53.099609 45.039062 C 48.089609 45.529063 43.04 45.840469 38 45.980469 C 37.33 46.000469 36.67 46.009531 36 46.019531 C 33.33 46.069531 30.67 46.069531 28 46.019531 C 27.33 46.009531 26.67 46.000469 26 45.980469 C 20.96 45.840469 15.910391 45.529063 10.900391 45.039062 L 2.9003906 44.269531 C 2.3903906 44.219531 2 43.789531 2 43.269531 L 2 42.054688 z M 28 48.019531 C 29.33 48.049531 30.67 48.060547 32 48.060547 C 33.33 48.060547 34.67 48.049531 36 48.019531 L 36 50.259766 C 33.35 49.859766 30.65 49.859766 28 50.259766 L 28 48.019531 z M 32 51.962891 C 32.8375 51.962891 33.674766 52.004844 34.509766 52.089844 C 35.679766 52.209844 36.85 52.409219 38 52.699219 C 38.13 52.719219 38.260625 52.759063 38.390625 52.789062 L 45.310547 54.619141 C 45.720547 54.729141 46 55.099297 46 55.529297 C 46 55.819297 45.870625 56.079766 45.640625 56.259766 C 45.410625 56.439766 45.110078 56.499922 44.830078 56.419922 L 39.160156 54.919922 C 37.530156 54.489922 35.869219 54.209844 34.199219 54.089844 C 32.729219 53.969844 31.270781 53.969844 29.800781 54.089844 C 28.130781 54.209844 26.469844 54.489922 24.839844 54.919922 L 19.169922 56.419922 C 18.889922 56.499922 18.589375 56.439766 18.359375 56.259766 C 18.129375 56.079766 18 55.819531 18 55.519531 C 18 55.099531 18.279453 54.729141 18.689453 54.619141 L 25.609375 52.789062 C 25.739375 52.759062 25.87 52.719219 26 52.699219 C 27.15 52.409219 28.320234 52.209844 29.490234 52.089844 C 30.325234 52.004844 31.1625 51.962891 32 51.962891 z"/>
</svg>
