<svg id="Layer_1" data-name="Layer 1" xmlns="http://www.w3.org/2000/svg" viewBox="0 0 512 512"><defs><style>.cls-1{fill:#141f38;}</style></defs><title>podcast-microphone-glyph</title><path class="cls-1" d="M268.8,453.93V486.4H371.2a12.8,12.8,0,0,1,0,25.6H140.8a12.8,12.8,0,0,1,0-25.6H243.2V453.93C143.28,447.31,64,364,64,262.4a12.8,12.8,0,0,1,25.6,0c0,87.45,67.81,159.3,153.6,165.86V409c-71.5-6.52-128-67.06-128-140.19h64a12.8,12.8,0,0,0,0-25.6h-64V217.6h64a12.8,12.8,0,0,0,0-25.6h-64V166.4h64a12.8,12.8,0,1,0,0-25.6h-64C115.2,63.36,178.56,0,256,0S396.8,63.36,396.8,140.8h-64a12.8,12.8,0,0,0,0,25.6h64V192h-64a12.8,12.8,0,0,0,0,25.6h64v25.6h-64a12.8,12.8,0,1,0,0,25.6h64c0,73.12-56.5,133.66-128,140.19v19.27c85.79-6.56,153.6-78.41,153.6-165.86a12.8,12.8,0,0,1,25.6,0C448,364,368.72,447.31,268.8,453.93Z"/></svg>