<?xml version="1.0"?>
<svg xmlns="http://www.w3.org/2000/svg" viewBox="0 0 24 24" enable-background="new 0 0 24 24">
    <path d="M 6.90625 2.5 C 4.60625 4.2 3 6.9 3 10 C 3 12.5 4.1125 14.8 5.8125 16.5 L 6.8125 14.6875 C 5.7125 13.3875 5 11.8 5 10 C 5 7.7 6.20625 5.6125 7.90625 4.3125 L 6.90625 2.5 z M 17.09375 2.59375 L 16.09375 4.40625 C 17.79375 5.60625 19 7.7 19 10 C 19 11.8 18.2875 13.39375 17.1875 14.59375 L 18.1875 16.40625 C 19.8875 14.80625 21 12.50625 21 9.90625 C 21 6.90625 19.39375 4.19375 17.09375 2.59375 z M 8.90625 6.09375 C 7.70625 6.99375 7 8.4 7 10 C 7 11 7.3125 11.8875 7.8125 12.6875 L 9 10.5 L 9 10 C 9 9.2 9.30625 8.40625 9.90625 7.90625 L 8.90625 6.09375 z M 15.09375 6.09375 L 14.09375 7.90625 C 14.69375 8.40625 15 9.2 15 10 L 15 10.5 L 16.1875 12.8125 C 16.6875 11.9125 17 11 17 10 C 17 8.4 16.29375 6.99375 15.09375 6.09375 z M 12 9 C 11.447715 9 11 9.4477153 11 10 L 8 22 L 10 22 L 12 14 L 14 22 L 16 22 L 13 10 C 13 9.4477153 12.552285 9 12 9 z"/>
</svg>
